<!--?xml version="1.0" standalone="no"?-->
              <svg id="sw-js-blob-svg" viewBox="0 0 100 100" xmlns="http://www.w3.org/2000/svg" version="1.1">
                    <defs> 
                        <linearGradient id="sw-gradient" x1="0" x2="1" y1="1" y2="0">
                            <stop id="stop1" stop-color="rgba(55, 149.92, 248, 0.53)" offset="0%"></stop>
                            <stop id="stop2" stop-color="rgba(31, 42.304, 251, 1)" offset="100%"></stop>
                        </linearGradient>
                    </defs>
                <path fill="rgba(55, 149.92, 248, 0.53)" d="M16.1,-21.6C21.4,-18.3,26.5,-14.3,27.4,-9.4C28.3,-4.5,24.9,1.2,23.8,8.6C22.6,16,23.7,25,20.1,32.1C16.5,39.1,8.2,44.2,-0.8,45.2C-9.8,46.2,-19.5,43.2,-23.7,36.4C-28,29.6,-26.7,18.9,-27.2,10.5C-27.8,2,-30.1,-4.3,-29.9,-11.2C-29.6,-18,-26.8,-25.6,-21.4,-28.8C-16,-32,-8,-31,-1.3,-29.2C5.4,-27.4,10.8,-24.9,16.1,-21.6Z" width="100%" height="100%" transform="translate(50 50)" style="transition: all 0.3s ease 0s;" stroke-width="0" stroke="url(#sw-gradient)"></path>
              </svg>