<!--?xml version="1.0" standalone="no"?-->
              <svg id="sw-js-blob-svg" viewBox="0 0 100 100" xmlns="http://www.w3.org/2000/svg" version="1.1">
                    <defs> 
                        <linearGradient id="sw-gradient" x1="0" x2="1" y1="1" y2="0">
                            <stop id="stop1" stop-color="rgba(55, 149.92, 248, 0.53)" offset="0%"></stop>
                            <stop id="stop2" stop-color="rgba(31, 42.304, 251, 1)" offset="100%"></stop>
                        </linearGradient>
                    </defs>
                <path fill="rgba(55, 149.92, 248, 0.53)" d="M15.5,-15.1C22.5,-16.2,32.4,-14.9,31.8,-11.5C31.3,-8.1,20.3,-2.5,18.1,6.4C15.9,15.4,22.5,27.7,20.9,29.6C19.4,31.4,9.7,22.9,4.8,16.3C-0.1,9.7,-0.2,5,-1.5,3C-2.9,1.1,-5.6,1.9,-5.8,1.7C-6.1,1.6,-4.1,0.5,-5.2,-3.4C-6.3,-7.2,-10.5,-13.8,-10.2,-14.9C-9.9,-16.1,-4.9,-11.7,-0.4,-11.2C4.2,-10.7,8.4,-14.1,15.5,-15.1Z" width="100%" height="100%" transform="translate(50 50)" style="transition: all 0.3s ease 0s;" stroke-width="0" stroke="url(#sw-gradient)"></path>
              </svg>