<!--?xml version="1.0" standalone="no"?-->
              <svg id="sw-js-blob-svg" viewBox="0 0 100 100" xmlns="http://www.w3.org/2000/svg" version="1.1">
                    <defs> 
                        <linearGradient id="sw-gradient" x1="0" x2="1" y1="1" y2="0">
                            <stop id="stop1" stop-color="rgba(55, 149.92, 248, 0.53)" offset="0%"></stop>
                            <stop id="stop2" stop-color="rgba(31, 42.304, 251, 1)" offset="100%"></stop>
                        </linearGradient>
                    </defs>
                <path fill="rgba(55, 149.92, 248, 0.53)" d="M18,-23.1C23,-17.2,26.6,-11.3,28.9,-4.2C31.2,2.9,32.2,11.1,28.3,14.8C24.3,18.6,15.3,17.9,8.2,19C1.1,20,-4.1,22.7,-10.8,23.2C-17.6,23.6,-26,21.7,-24.9,17.4C-23.9,13,-13.4,6.3,-12.2,-2.4C-11,-11.1,-19.1,-21.7,-18.6,-28.4C-18.1,-35.1,-9,-37.9,-1.3,-36.3C6.5,-34.8,13,-29,18,-23.1Z" width="100%" height="100%" transform="translate(50 50)" style="transition: all 0.3s ease 0s;" stroke-width="0" stroke="url(#sw-gradient)"></path>
              </svg>