<!--?xml version="1.0" standalone="no"?-->
              <svg id="sw-js-blob-svg" viewBox="0 0 100 100" xmlns="http://www.w3.org/2000/svg" version="1.1">
                    <defs> 
                        <linearGradient id="sw-gradient" x1="0" x2="1" y1="1" y2="0">
                            <stop id="stop1" stop-color="rgba(55, 149.92, 248, 0.53)" offset="0%"></stop>
                            <stop id="stop2" stop-color="rgba(31, 42.304, 251, 1)" offset="100%"></stop>
                        </linearGradient>
                    </defs>
                <path fill="rgba(55, 149.92, 248, 0.53)" d="M24.2,-35.5C29.9,-29.2,32,-20.2,34.4,-11.5C36.7,-2.9,39.3,5.4,38.2,13.5C37.1,21.7,32.3,29.7,25.3,34.2C18.3,38.6,9.2,39.4,1.5,37.3C-6.1,35.2,-12.2,30.2,-17.6,25.3C-23,20.3,-27.6,15.4,-31.7,8.9C-35.7,2.4,-39.2,-5.7,-38,-13.2C-36.8,-20.7,-30.9,-27.6,-23.8,-33.4C-16.7,-39.3,-8.3,-44.1,0.5,-44.8C9.3,-45.4,18.6,-41.9,24.2,-35.5Z" width="100%" height="100%" transform="translate(50 50)" style="transition: all 0.3s ease 0s;" stroke-width="0" stroke="url(#sw-gradient)"></path>
              </svg>